<svg width="70" height="54" viewBox="0 0 70 54" fill="none" xmlns="http://www.w3.org/2000/svg">
<path d="M66.4062 0H2.65625C1.95176 0 1.27614 0.279863 0.777989 0.777989C0.279863 1.27614 0 1.95176 0 2.65625V47.8125C0 49.2214 0.559698 50.5726 1.556 51.569C2.55228 52.5653 3.90355 53.125 5.3125 53.125H63.75C65.1589 53.125 66.5101 52.5653 67.5065 51.569C68.5028 50.5726 69.0625 49.2214 69.0625 47.8125V2.65625C69.0625 1.95176 68.7825 1.27614 68.2845 0.777989C67.7864 0.279863 67.1107 0 66.4062 0ZM59.5762 5.3125L34.5312 28.2723L9.48613 5.3125H59.5762ZM63.75 47.8125H5.3125V8.6959L32.7348 33.834C33.2249 34.284 33.8661 34.5334 34.5312 34.5334C35.1964 34.5334 35.8376 34.284 36.3277 33.834L63.75 8.6959V47.8125Z" fill="black"/>
</svg>
