<svg xmlns="http://www.w3.org/2000/svg" version="1.1" xmlns:xlink="http://www.w3.org/1999/xlink" width="1000" height="1000"><g clip-path="url(#SvgjsClipPath1706)"><rect width="1000" height="1000" fill="#ffffff"></rect><g transform="matrix(2,0,0,2,0,0)"><svg xmlns="http://www.w3.org/2000/svg" version="1.1" xmlns:xlink="http://www.w3.org/1999/xlink" width="500" height="500"><svg version="1.1" xmlns="http://www.w3.org/2000/svg" width="500" height="500">
<path d="M0 0 C1.43352212 0.00015908 2.86704998 0.00585132 4.30053711 0.01586914 C5.43041298 0.01799156 5.43041298 0.01799156 6.58311462 0.02015686 C8.99807646 0.02577163 11.41294687 0.03832656 13.82788086 0.05102539 C15.46134307 0.05603849 17.09480672 0.06060173 18.72827148 0.06469727 C22.74067671 0.07574585 26.75301326 0.09302033 30.76538086 0.11352539 C34.31060414 7.48364154 36.75591227 15.06983862 39.14089966 22.86880493 C40.32553263 26.73960935 41.52933408 30.60442607 42.73413086 34.46899414 C43.10478416 35.6587812 43.10478416 35.6587812 43.48292542 36.87260437 C46.15813609 45.42585084 48.97889113 53.9293459 51.82788086 62.42602539 C52.06330597 63.12848389 52.29873108 63.83094238 52.54129028 64.5546875 C53.59279054 67.69012044 54.64674269 70.82470364 55.703125 73.95849609 C56.72991423 77.00818518 57.74934605 80.06023859 58.76538086 83.11352539 C58.99725098 82.50355713 59.22912109 81.89358887 59.46801758 81.26513672 C60.52502936 78.4852644 61.58269892 75.7056428 62.64038086 72.92602539 C63.00518555 71.96631836 63.36999023 71.00661133 63.74584961 70.01782227 C64.27758789 68.62080078 64.27758789 68.62080078 64.82006836 67.19555664 C65.14475098 66.34195557 65.46943359 65.48835449 65.80395508 64.60888672 C66.12122559 63.78541748 66.43849609 62.96194824 66.76538086 62.11352539 C67.19681396 60.74973755 67.19681396 60.74973755 67.63696289 59.35839844 C68.76538086 57.11352539 68.76538086 57.11352539 70.60098267 56.46884155 C74.0803305 55.89765806 77.53062418 56.23010729 81.03100586 56.45336914 C81.82440369 56.49917618 82.61780151 56.54498322 83.4352417 56.59217834 C85.9623308 56.73939844 88.4888156 56.8950972 91.01538086 57.05102539 C92.73149368 57.15249679 94.44763932 57.25341469 96.16381836 57.35375977 C100.36474668 57.60060044 104.56515331 57.85504498 108.76538086 58.11352539 C109.87382362 62.75882387 109.37490804 64.88191707 107.45288086 69.30102539 C106.8868938 70.64515952 106.32327507 71.99029229 105.76147461 73.33618164 C105.4442041 74.08915527 105.12693359 74.84212891 104.80004883 75.61791992 C98.90484826 89.8370658 93.61996259 104.30212332 88.64038086 118.86352539 C88.02199341 120.6713147 88.02199341 120.6713147 87.39111328 122.515625 C86.57785431 124.89476631 85.76462139 127.27391654 84.95141602 129.65307617 C83.10328154 135.04530713 81.23440244 140.42915727 79.32788086 145.80102539 C79.00996582 146.72173828 78.69205078 147.64245117 78.36450195 148.59106445 C78.06495605 149.42734375 77.76541016 150.26362305 77.45678711 151.12524414 C77.20098877 151.85187256 76.94519043 152.57850098 76.68164062 153.32714844 C75.76538086 155.11352539 75.76538086 155.11352539 72.76538086 157.11352539 C68.48160962 157.54430527 64.18915539 157.52754462 59.88647461 157.5390625 C57.7720242 157.55098792 55.66046773 157.60019988 53.54663086 157.65063477 C52.20289509 157.66009642 50.85914142 157.6673327 49.51538086 157.67211914 C47.68233398 157.69230103 47.68233398 157.69230103 45.81225586 157.71289062 C42.76538086 157.11352539 42.76538086 157.11352539 41.2184906 154.99452209 C39.63279247 151.85065005 38.5316185 148.77580553 37.46875 145.41821289 C37.15586281 144.43894585 37.15586281 144.43894585 36.83665466 143.43989563 C36.15184269 141.29132524 35.47613943 139.14000765 34.80053711 136.98852539 C34.32170361 135.47964569 33.84231906 133.97094077 33.3624115 132.46240234 C32.10063451 128.49078053 30.84663815 124.51674314 29.59417725 120.54217529 C28.3312892 116.53966009 27.06057158 112.5396331 25.79077148 108.53930664 C23.92048186 102.64207948 22.05237684 96.74416938 20.19140625 90.84399414 C19.98455232 90.18898926 19.77769838 89.53398437 19.56457615 88.85913086 C18.55749914 85.6620341 17.56381366 82.46145781 16.59469604 79.25268555 C16.23650787 78.06852051 15.8783197 76.88435547 15.50927734 75.66430664 C15.03880226 74.09096558 15.03880226 74.09096558 14.55882263 72.48583984 C13.98542165 70.18479699 13.98542165 70.18479699 12.76538086 69.11352539 C9.91382452 77.13968785 7.0652233 85.16688985 4.21965027 93.19517517 C2.55411798 97.89297663 0.88462926 102.58935261 -0.78738403 107.28485107 C-1.89846739 110.40693185 -3.00693807 113.52993622 -4.11486816 116.65313721 C-4.65306058 118.16846667 -5.19236762 119.68340072 -5.73278809 121.19793701 C-6.49019921 123.32112841 -7.24371301 125.44566478 -7.99633789 127.57055664 C-8.42906006 128.78718994 -8.86178223 130.00382324 -9.30761719 131.25732422 C-10.33752097 133.9300999 -10.33752097 133.9300999 -10.23461914 136.11352539 C-10.89461914 136.11352539 -11.55461914 136.11352539 -12.23461914 136.11352539 C-12.60586914 138.00071289 -12.60586914 138.00071289 -12.98461914 139.92602539 C-16.08729771 153.96620396 -16.08729771 153.96620396 -19.23461914 157.11352539 C-23.6154398 157.37984226 -28.00194726 157.38476959 -32.38989258 157.40869141 C-34.59397599 157.42590323 -36.79655877 157.46977326 -39.00024414 157.51391602 C-40.39867058 157.52404286 -41.79710981 157.532559 -43.19555664 157.53930664 C-44.47221191 157.55388916 -45.74886719 157.56847168 -47.06420898 157.58349609 C-50.23461914 157.11352539 -50.23461914 157.11352539 -51.96386719 155.64257812 C-53.82520589 151.93813861 -55.22757755 148.12954078 -56.60571289 144.22290039 C-57.08351448 142.89579041 -57.08351448 142.89579041 -57.57096863 141.54187012 C-58.25495321 139.64009621 -58.93588792 137.73722317 -59.61407471 135.83337402 C-61.39724757 130.82814614 -63.20241886 125.83084566 -65.00415039 120.83227539 C-65.36393982 119.8320636 -65.72372925 118.83185181 -66.09442139 117.80133057 C-69.27778232 108.96146963 -72.54514367 100.15495198 -75.85961914 91.36352539 C-76.31908936 90.14375 -76.77855957 88.92397461 -77.25195312 87.66723633 C-77.91239624 85.91588379 -77.91239624 85.91588379 -78.58618164 84.12915039 C-79.01060547 83.00186523 -79.4350293 81.87458008 -79.87231445 80.71313477 C-80.87437323 78.06540096 -81.88462448 75.4215229 -82.90161133 72.77954102 C-83.45795356 71.32317117 -84.01426918 69.86679116 -84.57055664 68.41040039 C-84.83599274 67.72737854 -85.10142883 67.04435669 -85.37490845 66.34063721 C-86.47673875 63.44435318 -87.23461914 61.2412696 -87.23461914 58.11352539 C-83.9106062 56.45151892 -80.17032536 56.74604935 -76.50805664 56.57836914 C-75.64524078 56.535392 -74.78242493 56.49241486 -73.89346313 56.44813538 C-71.13236875 56.311572 -68.37101998 56.18123038 -65.60961914 56.05102539 C-63.73980744 55.95963753 -61.87001543 55.86784581 -60.00024414 55.77563477 C-55.41191801 55.55024121 -50.82335419 55.33042789 -46.23461914 55.11352539 C-43.06733875 61.93071169 -40.09830446 68.7767774 -37.42211914 75.80102539 C-36.95515625 77.01435547 -36.95515625 77.01435547 -36.47875977 78.25219727 C-35.72774542 80.20483456 -34.98073225 82.15901006 -34.23461914 84.11352539 C-29.96736258 73.16051264 -25.85459091 62.17296574 -22.04711914 51.05102539 C-18.49275609 40.67567421 -14.84049632 30.33877907 -11.12387085 20.02053833 C-10.53202206 18.37693369 -9.94121836 16.73295234 -9.35147095 15.08859253 C-8.52381259 12.78202237 -7.69233451 10.47686769 -6.85961914 8.17211914 C-6.60899216 7.47235962 -6.35836517 6.7726001 -6.10014343 6.05163574 C-3.9538767 0.13876916 -3.9538767 0.13876916 0 0 Z " fill="#FECF02" transform="translate(230.234619140625,170.886474609375)"></path>
<path d="M0 0 C11.36232896 -0.06983416 22.72460598 -0.12297982 34.0871067 -0.15543652 C39.36446394 -0.17102235 44.6416732 -0.19212969 49.91894531 -0.22631836 C55.02181812 -0.25916634 60.12454953 -0.27690612 65.22751999 -0.28463173 C67.16414995 -0.29012994 69.10077311 -0.30086511 71.03734207 -0.31719017 C93.74186769 -0.50079158 116.65144389 3.67884763 133.9375 19.8125 C147.4571328 34.15150448 156.22854875 50.34322541 159 70 C159.23976563 71.57394531 159.23976563 71.57394531 159.484375 73.1796875 C161.71228609 92.4733975 154.23189733 111.57051575 142.6328125 126.7421875 C132.81054833 139.10855542 120.94127712 147.80904111 106 153 C105.13761719 153.30808594 104.27523437 153.61617187 103.38671875 153.93359375 C86.79792571 158.95104345 67.78699814 157.08759826 50.625 157.125 C49.7600592 157.12776947 48.89511841 157.13053894 48.00396729 157.13339233 C45.53645413 157.13916481 43.06907577 157.13741417 40.6015625 157.1328125 C39.47192078 157.13576576 39.47192078 157.13576576 38.31945801 157.13877869 C33.11532945 157.11532945 33.11532945 157.11532945 32 156 C31.89941757 153.08342371 31.86384789 150.19049054 31.87060547 147.2734375 C31.86885315 146.35806213 31.86710083 145.44268677 31.86529541 144.49957275 C31.86087539 141.45802951 31.86381541 138.41654389 31.8671875 135.375 C31.8665145 133.2713215 31.86554452 131.16764308 31.86428833 129.06396484 C31.86281115 124.64875551 31.86496655 120.23356637 31.86962891 115.81835938 C31.8753262 110.14507439 31.8720473 104.47183671 31.86605644 98.79855347 C31.86245136 94.45271444 31.86358917 90.10688672 31.86618423 85.76104736 C31.86685365 83.6685587 31.86602457 81.57606903 31.86370468 79.48358154 C31.86117902 76.56454734 31.86501752 73.64559088 31.87060547 70.7265625 C31.86858124 69.8527594 31.86655701 68.9789563 31.86447144 68.07867432 C31.88573764 62.11426236 31.88573764 62.11426236 33 61 C35.73870242 60.91142125 38.45274983 60.88469293 41.19140625 60.90234375 C41.91775269 60.90335083 42.64409912 60.90435791 43.39245605 60.90539551 C46.11582001 60.91064284 48.83916153 60.924604 51.5625 60.9375 C57.646875 60.958125 63.73125 60.97875 70 61 C70 79.15 70 97.3 70 116 C91.08359583 114.46723479 91.08359583 114.46723479 108 104 C115.1910418 95.08440971 118.96102143 85.49666381 118 74 C116.12853294 62.99323608 111.0981973 54.51008866 102 48 C94.22196715 42.75112705 87.15726406 41.70283151 78.02563477 41.68115234 C77.04925552 41.67110672 76.07287628 41.6610611 75.06690979 41.65071106 C71.85841428 41.6199644 68.65000189 41.60286752 65.44140625 41.5859375 C63.20937896 41.56721902 60.97735869 41.5476451 58.74534607 41.5272522 C52.88465523 41.475997 47.02394147 41.43633581 41.16314697 41.39910889 C35.17706664 41.35902783 29.19108114 41.30795419 23.20507812 41.2578125 C11.47011876 41.16113146 -0.26489423 41.0767016 -12 41 C-13.39045922 36.82862235 -11.88698069 33.89473766 -10.5078125 29.90234375 C-10.24241669 29.11227432 -9.97702087 28.3222049 -9.70358276 27.50819397 C-8.85242984 24.98170911 -7.98870425 22.45971805 -7.125 19.9375 C-6.54999074 18.23399058 -5.97576235 16.53021738 -5.40234375 14.82617188 C-1.21302623 2.42605246 -1.21302623 2.42605246 0 0 Z " fill="#FECF02" transform="translate(317,171)"></path>
<path d="M0 0 C1.67635025 -0.00639748 1.67635025 -0.00639748 3.38656616 -0.01292419 C4.62347702 -0.01247101 5.86038788 -0.01201782 7.13478088 -0.0115509 C8.42893921 -0.01490952 9.72309753 -0.01826813 11.05647278 -0.02172852 C14.61635637 -0.03058904 18.17621595 -0.03290749 21.7361095 -0.0335443 C24.70345569 -0.03449172 27.67079623 -0.03816809 30.63814026 -0.0417164 C37.63653508 -0.04986877 44.63491702 -0.05229992 51.63331604 -0.05158997 C58.86273811 -0.05098897 66.09208561 -0.06154323 73.3214888 -0.07733363 C79.51936936 -0.0903907 85.71722549 -0.09577464 91.91511971 -0.09513456 C95.62079203 -0.09487902 99.32639813 -0.09776037 103.03205681 -0.10831261 C107.16270455 -0.11975316 111.29318427 -0.11525805 115.42384338 -0.10920715 C117.27617332 -0.11763641 117.27617332 -0.11763641 119.16592407 -0.12623596 C120.84650406 -0.11994423 120.84650406 -0.11994423 122.56103516 -0.11352539 C123.53868049 -0.11407016 124.51632582 -0.11461493 125.52359676 -0.1151762 C127.8440094 0.13371277 127.8440094 0.13371277 129.8440094 2.13371277 C130.79338874 4.6471349 131.66037495 7.14084892 132.48072815 9.69621277 C132.84627556 10.8168512 132.84627556 10.8168512 133.21920776 11.96012878 C133.73237675 13.53945921 134.24240499 15.11981309 134.74952698 16.70109558 C135.52945755 19.12732979 136.32375563 21.5485302 137.11940002 23.96965027 C137.61571846 25.50322129 138.1111902 27.03706665 138.60572815 28.57121277 C138.8452269 29.29832458 139.08472565 30.0254364 139.33148193 30.77458191 C140.95877496 35.90418165 140.95877496 35.90418165 139.8440094 38.13371277 C117.91222911 39.2981403 96.00194216 39.2554672 74.04664612 39.20237732 C69.27207391 39.19196824 64.49749604 39.18754286 59.72291565 39.18254089 C50.4299301 39.17196013 41.13697785 39.15444034 31.8440094 39.13371277 C32.3390094 49.52871277 32.3390094 49.52871277 32.8440094 60.13371277 C52.3140094 60.13371277 71.7840094 60.13371277 91.8440094 60.13371277 C91.8646344 65.55808777 91.8852594 70.98246277 91.9065094 76.57121277 C91.9156134 78.2849408 91.92471741 79.99866882 91.93409729 81.764328 C91.93701656 83.11532004 91.93956509 84.46631296 91.94166565 85.81730652 C91.94678162 86.52471985 91.95189758 87.23213318 91.95716858 87.96098328 C91.95747972 89.68563894 91.90626701 91.41018115 91.8440094 93.13371277 C90.8440094 94.13371277 90.8440094 94.13371277 88.48388672 94.25396729 C87.43797867 94.25174667 86.39207062 94.24952606 85.31446838 94.24723816 C84.13331955 94.24716263 82.95217072 94.2470871 81.73522949 94.24700928 C80.4498378 94.24184799 79.16444611 94.23668671 77.84010315 94.23136902 C75.8778756 94.2292466 75.8778756 94.2292466 73.87600708 94.2270813 C70.39238081 94.22325687 66.90879601 94.21342723 63.42518616 94.20237732 C59.87274232 94.19216159 56.32029181 94.18758333 52.76783752 94.18254089 C45.79321108 94.17180489 38.81861223 94.15472936 31.8440094 94.13371277 C31.84623001 94.90823288 31.84845062 95.68275299 31.85073853 96.48074341 C31.87074074 103.76492298 31.88598317 111.04908932 31.89582157 118.33328915 C31.90104954 122.07854314 31.90814562 125.82377452 31.91944885 129.5690155 C31.93028081 133.18052964 31.93628689 136.79202198 31.93888664 140.4035511 C31.94074034 141.78431606 31.94435989 143.16507977 31.94973946 144.54583549 C31.95695387 146.47347229 31.95741749 148.40113084 31.95753479 150.32878113 C31.9597554 151.42798386 31.96197601 152.52718658 31.96426392 153.65969849 C31.8440094 156.13371277 31.8440094 156.13371277 30.8440094 157.13371277 C28.18944747 157.23466841 25.56145764 157.27342275 22.9065094 157.26652527 C21.71360291 157.26796036 21.71360291 157.26796036 20.49659729 157.26942444 C18.81194479 157.2701062 17.12728969 157.26825219 15.44264221 157.26408386 C12.85501743 157.25873552 10.26756624 157.26402896 7.6799469 157.27043152 C6.04713401 157.26977074 4.41432124 157.26848957 2.7815094 157.26652527 C2.00235168 157.2685495 1.22319397 157.27057373 0.42042542 157.2726593 C-5.04103955 157.24866381 -5.04103955 157.24866381 -6.1559906 156.13371277 C-6.25490788 154.13640444 -6.28231334 152.13554414 -6.28297424 150.13578796 C-6.28579407 148.83166458 -6.28861389 147.5275412 -6.29151917 146.18389893 C-6.28957456 144.72511278 -6.28752638 143.26632677 -6.28538513 141.80754089 C-6.28673911 140.28194131 -6.28851902 138.75634204 -6.29069519 137.23074341 C-6.29526995 133.07590121 -6.29347979 128.92108373 -6.2903161 124.76624107 C-6.28779272 120.42783413 -6.29012998 116.08942936 -6.29170227 111.75102234 C-6.29352403 104.46403115 -6.29111749 97.17705008 -6.28636169 89.89006042 C-6.28091906 81.4529942 -6.28268171 73.01595214 -6.2881881 64.57888651 C-6.29271905 57.34833522 -6.29336987 50.11779123 -6.29074943 42.88723898 C-6.28918656 38.56290382 -6.28899317 34.23858004 -6.29228592 29.91424561 C-6.29516437 25.84973578 -6.29318942 21.78525724 -6.28739166 17.72075081 C-6.28606392 16.22471735 -6.28645841 14.72868128 -6.28865433 13.23264885 C-6.29136526 11.19897935 -6.28737151 9.16530413 -6.28297424 7.13163757 C-6.28259722 5.99083488 -6.28222019 4.8500322 -6.28183174 3.67465973 C-6.05811564 -0.84254947 -4.01840233 0.00689086 0 0 Z " fill="#FECF01" transform="translate(37.15599060058594,170.8662872314453)"></path>
<path d="M0 0 C1.50433594 0.01353516 1.50433594 0.01353516 3.0390625 0.02734375 C3.80992188 0.03894531 4.58078125 0.05054688 5.375 0.0625 C5.375 0.3925 5.375 0.7225 5.375 1.0625 C28.805 1.3925 52.235 1.7225 76.375 2.0625 C76.375 2.3925 76.375 2.7225 76.375 3.0625 C49.315 3.0625 22.255 3.0625 -5.625 3.0625 C-5.295 9.9925 -4.965 16.9225 -4.625 24.0625 C14.845 24.0625 34.315 24.0625 54.375 24.0625 C54.395625 29.486875 54.41625 34.91125 54.4375 40.5 C54.446604 42.21372803 54.45570801 43.92745605 54.46508789 45.69311523 C54.46800716 47.04410727 54.47055569 48.39510019 54.47265625 49.74609375 C54.47777222 50.45350708 54.48288818 51.16092041 54.48815918 51.88977051 C54.48847032 53.61442617 54.43725761 55.33896838 54.375 57.0625 C53.375 58.0625 53.375 58.0625 51.01487732 58.18275452 C49.96896927 58.18053391 48.92306122 58.17831329 47.84545898 58.17602539 C46.04884827 58.17584412 46.04884827 58.17584412 44.21594238 58.17565918 C42.94714233 58.17054321 41.67834229 58.16542725 40.37109375 58.16015625 C39.21226685 58.15914917 38.05343994 58.15814209 36.85949707 58.15710449 C32.51048805 58.15185327 28.16149308 58.13789216 23.8125 58.125 C9.2409375 58.0940625 9.2409375 58.0940625 -5.625 58.0625 C-5.625 78.5225 -5.625 98.9825 -5.625 120.0625 C-6.285 120.0625 -6.945 120.0625 -7.625 120.0625 C-7.64814367 111.88286512 -7.66592544 103.70324387 -7.67681217 95.52358437 C-7.68203656 91.72567211 -7.68912617 87.9277822 -7.70043945 84.12988281 C-7.71128408 80.46649327 -7.71728019 76.80312527 -7.71987724 73.13972092 C-7.72172864 71.74024491 -7.72534382 70.34077012 -7.73073006 68.94130325 C-7.73796126 66.98513178 -7.73840823 65.02893874 -7.73852539 63.07275391 C-7.740746 61.9580069 -7.74296661 60.84325989 -7.74525452 59.69473267 C-7.625 57.0625 -7.625 57.0625 -6.625 55.0625 C12.845 55.0625 32.315 55.0625 52.375 55.0625 C52.045 46.1525 51.715 37.2425 51.375 28.0625 C48.10980469 28.07410156 44.84460938 28.08570313 41.48046875 28.09765625 C38.2865407 28.10547507 35.09261375 28.11153573 31.89868164 28.11743164 C29.69424963 28.12243255 27.48982089 28.12923542 25.28540039 28.13793945 C22.10041492 28.15019217 18.91547365 28.15577089 15.73046875 28.16015625 C14.27352852 28.16789818 14.27352852 28.16789818 12.78715515 28.17579651 C-0.9131295 28.17689719 -0.9131295 28.17689719 -6.625 27.0625 C-7.92975618 24.45298764 -7.73801572 22.53548715 -7.72265625 19.6171875 C-7.71943359 18.54082031 -7.71621094 17.46445313 -7.71289062 16.35546875 C-7.70451172 15.22753906 -7.69613281 14.09960938 -7.6875 12.9375 C-7.68298828 11.80183594 -7.67847656 10.66617188 -7.67382812 9.49609375 C-7.66201615 6.68484362 -7.64554507 3.8736977 -7.625 1.0625 C-4.98041621 -0.25979189 -2.94738699 -0.03427194 0 0 Z " fill="#F3D036" transform="translate(74.625,206.9375)"></path>
<path d="M0 0 C4.28401927 6.15827771 3.37510531 14.60457654 3 21.875 C2.67 22.535 2.34 23.195 2 23.875 C-0.66666667 23.875 -3.33333333 23.875 -6 23.875 C-6.80050781 23.92140625 -7.60101563 23.9678125 -8.42578125 24.015625 C-16.20956624 24.31054513 -16.20956624 24.31054513 -20.0625 22.1875 C-23.60005951 17.96525155 -24.4107969 14.41065705 -24.25390625 8.8671875 C-23.73440441 4.79109612 -22.04185729 1.88212872 -19.125 -0.9375 C-13.07872315 -4.31630177 -5.60116183 -3.96748963 0 0 Z M-14.875 4.875 C-16.68755546 8.09732082 -16.53166222 11.27317565 -16 14.875 C-15.12129086 17.087981 -15.12129086 17.087981 -13 17.875 C-9.38537214 17.79921045 -9.38537214 17.79921045 -6 16.875 C-5.67 16.215 -5.34 15.555 -5 14.875 C-7.31 14.545 -9.62 14.215 -12 13.875 C-12.33 12.225 -12.66 10.575 -13 8.875 C-10.03 8.875 -7.06 8.875 -4 8.875 C-5.0645852 6.26556942 -5.0645852 6.26556942 -7 3.875 C-10.15857715 3.34857048 -12.03310267 3.35932143 -14.875 4.875 Z " fill="#040405" transform="translate(358,343.125)"></path>
<path d="M0 0 C3.3 0 6.6 0 10 0 C12.31 4.29 14.62 8.58 17 13 C17.33 8.71 17.66 4.42 18 0 C19.98 0 21.96 0 24 0 C25.71567792 1.71567792 25.13015825 3.97372735 25.1328125 6.3125 C25.13474609 7.92511719 25.13474609 7.92511719 25.13671875 9.5703125 C25.13285156 10.70210938 25.12898438 11.83390625 25.125 13 C25.13080078 14.69769531 25.13080078 14.69769531 25.13671875 16.4296875 C25.13542969 17.50476563 25.13414062 18.57984375 25.1328125 19.6875 C25.13168457 20.68136719 25.13055664 21.67523438 25.12939453 22.69921875 C25 25 25 25 24 26 C20.66381769 26.14257189 17.34024394 26.04228157 14 26 C12.02 21.71 10.04 17.42 8 13 C7.855625 14.959375 7.71125 16.91875 7.5625 18.9375 C7.125 24.875 7.125 24.875 6 26 C4.02 26 2.04 26 0 26 C0 17.42 0 8.84 0 0 Z " fill="#020202" transform="translate(184,341)"></path>
<path d="M0 0 C1.67635025 -0.00639748 1.67635025 -0.00639748 3.38656616 -0.01292419 C4.62347702 -0.01247101 5.86038788 -0.01201782 7.13478088 -0.0115509 C8.42893921 -0.01490952 9.72309753 -0.01826813 11.05647278 -0.02172852 C14.61635637 -0.03058904 18.17621595 -0.03290749 21.7361095 -0.0335443 C24.70345569 -0.03449172 27.67079623 -0.03816809 30.63814026 -0.0417164 C37.63653508 -0.04986877 44.63491702 -0.05229992 51.63331604 -0.05158997 C58.86273811 -0.05098897 66.09208561 -0.06154323 73.3214888 -0.07733363 C79.51936936 -0.0903907 85.71722549 -0.09577464 91.91511971 -0.09513456 C95.62079203 -0.09487902 99.32639813 -0.09776037 103.03205681 -0.10831261 C107.16270455 -0.11975316 111.29318427 -0.11525805 115.42384338 -0.10920715 C117.27617332 -0.11763641 117.27617332 -0.11763641 119.16592407 -0.12623596 C120.84650406 -0.11994423 120.84650406 -0.11994423 122.56103516 -0.11352539 C123.53868049 -0.11407016 124.51632582 -0.11461493 125.52359676 -0.1151762 C127.8440094 0.13371277 127.8440094 0.13371277 129.8440094 2.13371277 C130.79338874 4.6471349 131.66037495 7.14084892 132.48072815 9.69621277 C132.84627556 10.8168512 132.84627556 10.8168512 133.21920776 11.96012878 C133.73237675 13.53945921 134.24240499 15.11981309 134.74952698 16.70109558 C135.52945755 19.12732979 136.32375563 21.5485302 137.11940002 23.96965027 C137.61571846 25.50322129 138.1111902 27.03706665 138.60572815 28.57121277 C138.8452269 29.29832458 139.08472565 30.0254364 139.33148193 30.77458191 C140.95877496 35.90418165 140.95877496 35.90418165 139.8440094 38.13371277 C135.5540094 38.13371277 131.2640094 38.13371277 126.8440094 38.13371277 C126.8440094 37.47371277 126.8440094 36.81371277 126.8440094 36.13371277 C130.1440094 36.13371277 133.4440094 36.13371277 136.8440094 36.13371277 C136.2466617 33.46535754 135.64133823 30.79921914 135.0315094 28.13371277 C134.7830426 27.01802917 134.7830426 27.01802917 134.52955627 25.87980652 C133.67838599 22.18604867 132.72311427 18.66285112 131.33229065 15.13371277 C129.8440094 11.13371277 129.8440094 11.13371277 127.8440094 2.13371277 C84.2840094 2.46371277 40.7240094 2.79371277 -4.1559906 3.13371277 C-4.4859906 53.62371277 -4.8159906 104.11371277 -5.1559906 156.13371277 C-5.4859906 156.13371277 -5.8159906 156.13371277 -6.1559906 156.13371277 C-6.17931794 135.94149568 -6.19696896 115.74928132 -6.20780277 95.55705357 C-6.21296608 86.18213006 -6.22000944 76.8072149 -6.23143005 67.43229675 C-6.24137583 59.26416755 -6.24784377 51.0960444 -6.2500791 42.92790931 C-6.25138638 38.60020222 -6.25447337 34.27251243 -6.26172066 29.94481087 C-6.2684792 25.87621549 -6.2706079 21.80764465 -6.26909828 17.73904419 C-6.26937469 16.24139714 -6.27138079 14.74374932 -6.27519608 13.2461071 C-6.28013066 11.21019958 -6.27838878 9.17427907 -6.27624512 7.1383667 C-6.27716691 5.99626519 -6.2780887 4.85416368 -6.27903843 3.67745304 C-6.06037492 -0.84292886 -4.02023039 0.00689399 0 0 Z " fill="#F0CE45" transform="translate(37.15599060058594,170.8662872314453)"></path>
<path d="M0 0 C2.68486605 1.94652789 3.70879324 3.12637972 4.75 6.25 C4.87375 7.11625 4.87375 7.11625 5 8 C3.02 8.99 3.02 8.99 1 10 C1.99 10.66 2.98 11.32 4 12 C5.13247751 16.61702369 5.39128867 19.81524483 3 24 C-1.87945054 27.25296703 -7.30145765 26.69894512 -13 26 C-16.3125 23.8125 -16.3125 23.8125 -18 21 C-18.4375 18.3125 -18.4375 18.3125 -18 16 C-17.34 15.34 -16.68 14.68 -16 14 C-16.350625 13.46375 -16.70125 12.9275 -17.0625 12.375 C-18.33735758 9.14536079 -17.96557827 7.31055407 -17 4 C-12.43713824 -1.82158225 -6.77772021 -1.61967579 0 0 Z M-10 6 C-9.67 6.99 -9.34 7.98 -9 9 C-7.02 9 -5.04 9 -3 9 C-3.33 8.01 -3.66 7.02 -4 6 C-5.98 6 -7.96 6 -10 6 Z M-11 16 C-11 16.99 -11 17.98 -11 19 C-8.29120665 20.35439668 -5.99066732 20.06501451 -3 20 C-3.33 18.68 -3.66 17.36 -4 16 C-6.31 16 -8.62 16 -11 16 Z " fill="#050505" transform="translate(457,341)"></path>
<path d="M0 0 C1.56047444 0.00025108 3.12095443 0.00581199 4.68139648 0.01586914 C5.40774292 0.01687622 6.13408936 0.0178833 6.88244629 0.0189209 C9.60581024 0.02416823 12.32915176 0.03812939 15.05249023 0.05102539 C21.13686523 0.07165039 27.22124023 0.09227539 33.48999023 0.11352539 C33.48999023 18.26352539 33.48999023 36.41352539 33.48999023 55.11352539 C33.15999023 55.11352539 32.82999023 55.11352539 32.48999023 55.11352539 C32.15999023 37.62352539 31.82999023 20.13352539 31.48999023 2.11352539 C20.26999023 2.11352539 9.04999023 2.11352539 -2.51000977 2.11352539 C-2.51000977 32.47352539 -2.51000977 62.83352539 -2.51000977 94.11352539 C34.74071786 95.51264399 34.74071786 95.51264399 72.12670898 87.95336914 C74.7597277 87.01766828 75.91119401 87.15841568 78.48999023 88.11352539 C58.4086047 98.10350759 35.9730939 96.19088927 14.11499023 96.23852539 C13.25004944 96.24129486 12.38510864 96.24406433 11.49395752 96.24691772 C9.02644436 96.2526902 6.559066 96.25093956 4.09155273 96.24633789 C2.96191101 96.24929115 2.96191101 96.24929115 1.80944824 96.25230408 C-3.39468031 96.22885484 -3.39468031 96.22885484 -4.51000977 95.11352539 C-4.6105922 92.1969491 -4.64616187 89.30401594 -4.6394043 86.38696289 C-4.64115662 85.47158752 -4.64290894 84.55621216 -4.64471436 83.61309814 C-4.64913437 80.5715549 -4.64619436 77.53006928 -4.64282227 74.48852539 C-4.64349526 72.38484689 -4.64446525 70.28116847 -4.64572144 68.17749023 C-4.64719861 63.7622809 -4.64504322 59.34709176 -4.64038086 54.93188477 C-4.63468356 49.25859978 -4.63796246 43.5853621 -4.64395332 37.91207886 C-4.6475584 33.56623983 -4.6464206 29.22041211 -4.64382553 24.87457275 C-4.64315611 22.78208409 -4.64398519 20.68959442 -4.64630508 18.59710693 C-4.64883074 15.67807273 -4.64499224 12.75911627 -4.6394043 9.84008789 C-4.64142853 8.96628479 -4.64345276 8.09248169 -4.64553833 7.19219971 C-4.62042726 0.14943999 -4.62042726 0.14943999 0 0 Z " fill="#FCC438" transform="translate(353.510009765625,231.886474609375)"></path>
<path d="M0 0 C2.82129477 4.23194216 3.27496783 7.96416067 3 13 C2.20257379 16.48144613 0.89084088 19.13756862 -1.71484375 21.66015625 C-6.32426638 24.36277499 -11.85381229 23.68956361 -17 23 C-20.29332206 21.49105971 -22.27240959 19.50715156 -23.875 16.1875 C-23.91625 15.465625 -23.9575 14.74375 -24 14 C-24.0825 12.72125 -24.165 11.4425 -24.25 10.125 C-24.19018896 6.11018404 -23.21741767 3.40532 -21 0 C-14.87667601 -5.91921319 -6.59912743 -4.39941829 0 0 Z M-16 5 C-16.47790518 7.36284864 -16.47790518 7.36284864 -16.375 10 C-16.38273437 10.886875 -16.39046875 11.77375 -16.3984375 12.6875 C-16.26695312 13.450625 -16.13546875 14.21375 -16 15 C-12.76746204 17.15502531 -11.74849077 17.46856135 -8 17 C-6.02421261 16.10938785 -6.02421261 16.10938785 -5 14 C-4.44996249 10.383315 -4.28979772 7.19613015 -6.1875 4 C-10.03109971 1.87939327 -12.47838688 2.65225792 -16 5 Z " fill="#030303" transform="translate(318,344)"></path>
<path d="M0 0 C1.98 0 3.96 0 6 0 C7.4783226 2.95664519 7.06032783 5.74229737 7 9 C9.64 9 12.28 9 15 9 C14.979375 7.88625 14.95875 6.7725 14.9375 5.625 C15 2 15 2 16 0 C17.99954746 -0.04254356 20.00041636 -0.04080783 22 0 C23.71567792 1.71567792 23.13015825 3.97372735 23.1328125 6.3125 C23.13474609 7.92511719 23.13474609 7.92511719 23.13671875 9.5703125 C23.13285156 10.70210938 23.12898438 11.83390625 23.125 13 C23.13080078 14.69769531 23.13080078 14.69769531 23.13671875 16.4296875 C23.13542969 17.50476563 23.13414062 18.57984375 23.1328125 19.6875 C23.13168457 20.68136719 23.13055664 21.67523438 23.12939453 22.69921875 C23 25 23 25 22 26 C19 26.125 19 26.125 16 26 C15 25 15 25 14.90234375 22.93359375 C14.91394531 22.10988281 14.92554688 21.28617187 14.9375 20.4375 C14.94652344 19.61121094 14.95554688 18.78492188 14.96484375 17.93359375 C14.97644531 17.29550781 14.98804688 16.65742188 15 16 C12.36 16 9.72 16 7 16 C7.020625 17.27875 7.04125 18.5575 7.0625 19.875 C7.125 23.75 7.125 23.75 6 26 C4.00045254 26.04254356 1.99958364 26.04080783 0 26 C-1.68023 24.31977 -1.13006804 22.24224072 -1.1328125 19.94140625 C-1.13410156 18.91595703 -1.13539063 17.89050781 -1.13671875 16.83398438 C-1.13285156 15.75439453 -1.12898437 14.67480469 -1.125 13.5625 C-1.12886719 12.48677734 -1.13273438 11.41105469 -1.13671875 10.30273438 C-1.13542969 9.27599609 -1.13414062 8.24925781 -1.1328125 7.19140625 C-1.13168457 6.24467041 -1.13055664 5.29793457 -1.12939453 4.32250977 C-1 2 -1 2 0 0 Z " fill="#020303" transform="translate(147,341)"></path>
<path d="M0 0 C1.18613892 0.00785522 1.18613892 0.00785522 2.39624023 0.01586914 C3.67724609 0.02070313 3.67724609 0.02070313 4.98413086 0.02563477 C5.88196289 0.03401367 6.77979492 0.04239258 7.70483398 0.05102539 C8.6065332 0.05553711 9.50823242 0.06004883 10.43725586 0.06469727 C12.67234712 0.07652315 14.90730835 0.09300319 17.14233398 0.11352539 C17.47233398 2.09352539 17.80233398 4.07352539 18.14233398 6.11352539 C13.85233398 6.11352539 9.56233398 6.11352539 5.14233398 6.11352539 C5.14233398 7.10352539 5.14233398 8.09352539 5.14233398 9.11352539 C5.92479492 9.10192383 6.70725586 9.09032227 7.51342773 9.07836914 C8.5253418 9.0693457 9.53725586 9.06032227 10.57983398 9.05102539 C11.58916992 9.03942383 12.59850586 9.02782227 13.63842773 9.01586914 C16.14233398 9.11352539 16.14233398 9.11352539 17.14233398 10.11352539 C17.26733398 12.61352539 17.26733398 12.61352539 17.14233398 15.11352539 C15.01653901 17.23932036 10.49021004 16.56023908 7.61108398 16.73461914 C6.79639648 16.8596582 5.98170898 16.98469727 5.14233398 17.11352539 C4.81233398 17.77352539 4.48233398 18.43352539 4.14233398 19.11352539 C5.53258789 19.09612305 5.53258789 19.09612305 6.95092773 19.07836914 C8.1484668 19.0693457 9.34600586 19.06032227 10.57983398 19.05102539 C11.77479492 19.03942383 12.96975586 19.02782227 14.20092773 19.01586914 C17.14233398 19.11352539 17.14233398 19.11352539 18.14233398 20.11352539 C18.26733398 22.61352539 18.26733398 22.61352539 18.14233398 25.11352539 C17.14233398 26.11352539 17.14233398 26.11352539 15.19287109 26.22705078 C14.36021729 26.22181396 13.52756348 26.21657715 12.66967773 26.21118164 C11.77055664 26.20795898 10.87143555 26.20473633 9.94506836 26.20141602 C8.99954102 26.19303711 8.05401367 26.1846582 7.07983398 26.17602539 C6.13043945 26.17151367 5.18104492 26.16700195 4.20288086 26.16235352 C1.84930333 26.15052649 -0.50415079 26.13404564 -2.85766602 26.11352539 C-2.88653353 21.96770652 -2.90441929 17.82191323 -2.92016602 13.67602539 C-2.92854492 12.49202148 -2.93692383 11.30801758 -2.94555664 10.08813477 C-2.9487793 8.96342773 -2.95200195 7.8387207 -2.95532227 6.67993164 C-2.96055908 5.63780518 -2.9657959 4.59567871 -2.97119141 3.52197266 C-2.81328241 0.17192487 -2.81328241 0.17192487 0 0 Z " fill="#050505" transform="translate(74.857666015625,340.886474609375)"></path>
<path d="M0 0 C3.31248187 -0.02888146 6.62493167 -0.04675799 9.9375 -0.0625 C10.88302734 -0.07087891 11.82855469 -0.07925781 12.80273438 -0.08789062 C14.15141602 -0.09272461 14.15141602 -0.09272461 15.52734375 -0.09765625 C16.77632446 -0.10551147 16.77632446 -0.10551147 18.05053711 -0.11352539 C20 0 20 0 21 1 C21.04063832 2.66617115 21.042721 4.33388095 21 6 C19.60974609 6.07347656 19.60974609 6.07347656 18.19140625 6.1484375 C16.99386719 6.22320312 15.79632813 6.29796875 14.5625 6.375 C12.77005859 6.47941406 12.77005859 6.47941406 10.94140625 6.5859375 C9.97074219 6.72257812 9.00007813 6.85921875 8 7 C7.67 7.66 7.34 8.32 7 9 C10.96 9 14.92 9 19 9 C20 14 20 14 19 16 C15.04 16 11.08 16 7 16 C7 16.99 7 17.98 7 19 C11.29 19 15.58 19 20 19 C20.33 20.98 20.66 22.96 21 25 C19.44393249 26.55606751 17.94042629 26.12970769 15.78125 26.1328125 C14.50701172 26.13474609 14.50701172 26.13474609 13.20703125 26.13671875 C11.86705078 26.13091797 11.86705078 26.13091797 10.5 26.125 C9.60667969 26.12886719 8.71335937 26.13273437 7.79296875 26.13671875 C6.94347656 26.13542969 6.09398437 26.13414062 5.21875 26.1328125 C4.43435547 26.13168457 3.64996094 26.13055664 2.84179688 26.12939453 C1 26 1 26 0 25 C-0.08737645 23.14630389 -0.10698153 21.28932459 -0.09765625 19.43359375 C-0.09443359 18.30888672 -0.09121094 17.18417969 -0.08789062 16.02539062 C-0.07951172 14.84138672 -0.07113281 13.65738281 -0.0625 12.4375 C-0.05798828 11.24962891 -0.05347656 10.06175781 -0.04882812 8.83789062 C-0.03699675 5.89187774 -0.02051287 2.94596319 0 0 Z " fill="#050505" transform="translate(405,341)"></path>
<path d="M0 0 C3.73392709 3.73392709 5.16273132 6.5475089 5.3125 11.75 C5.27047528 16.59685097 4.25698102 19.27773598 1 23 C-2.42329851 25.28219901 -3.84137668 25.29741163 -7.875 25.3125 C-8.90367187 25.32925781 -9.93234375 25.34601563 -10.9921875 25.36328125 C-14.44392583 24.94638298 -16.25719909 24.11683067 -19 22 C-21.29098771 18.79813766 -21.26932891 15.86578273 -21.25 12 C-21.25515625 10.96875 -21.2603125 9.9375 -21.265625 8.875 C-21.00090942 6.00984313 -20.55937942 4.39032901 -19 2 C-12.81416823 -2.51398535 -7.0400741 -2.7107575 0 0 Z M-12.8125 6 C-14.71378588 9.2021657 -14.66933608 12.38257692 -14 16 C-12.51869332 18.23608998 -12.51869332 18.23608998 -10 19 C-6.87319901 19.00674926 -6.87319901 19.00674926 -4 18 C-1.67250655 14.50875983 -1.49700684 13.10777749 -2 9 C-4.01200619 6.16828758 -5.12071767 5.15012137 -8.5625 4.5625 C-10.97819609 4.86156465 -10.97819609 4.86156465 -12.8125 6 Z " fill="#030303" transform="translate(244,342)"></path>
<path d="M0 0 C2.96905925 2.61559981 3.90051274 3.88076832 4.25 7.8125 C4.1675 8.534375 4.085 9.25625 4 10 C1.69 10 -0.62 10 -3 10 C-3.33 9.01 -3.66 8.02 -4 7 C-7.40320934 6.32326553 -7.40320934 6.32326553 -11 6 C-13.15705515 7.7564331 -13.15705515 7.7564331 -13.265625 9.875 C-13.26046875 10.57625 -13.2553125 11.2775 -13.25 12 C-13.25515625 12.70125 -13.2603125 13.4025 -13.265625 14.125 C-13.15705515 16.2435669 -13.15705515 16.2435669 -11 18 C-7.9086614 18.23779528 -5.96895056 17.98965019 -3 17 C-3 15.68 -3 14.36 -3 13 C-0.69 13 1.62 13 4 13 C5 16 5 16 4.3125 18.4375 C2.81573716 21.35975127 1.57542236 22.95078519 -1 25 C-4.27734375 25.53125 -4.27734375 25.53125 -7.9375 25.5 C-9.14277344 25.5103125 -10.34804687 25.520625 -11.58984375 25.53125 C-15.55323835 24.91381396 -17.18358279 23.80102695 -20 21 C-22.71146435 15.82356805 -22.26254049 10.56074818 -21 5 C-19.0217063 1.34776547 -17.63646162 0.29277235 -13.875 -1.4375 C-8.87550432 -2.16323324 -4.74712944 -1.75024599 0 0 Z " fill="#030303" transform="translate(128,342)"></path>
<path d="M0 0 C4.95 0 9.9 0 15 0 C15.33 1.65 15.66 3.3 16 5 C15.35546875 5.20367187 14.7109375 5.40734375 14.046875 5.6171875 C11.68846128 6.8667935 11.68846128 6.8667935 11.390625 9.8203125 C11.32101562 11.45613281 11.32101562 11.45613281 11.25 13.125 C11.19328125 14.22070312 11.1365625 15.31640625 11.078125 16.4453125 C11.03945313 17.70988281 11.03945313 17.70988281 11 19 C12.32 19 13.64 19 15 19 C15.38133299 20.9914056 15.71325582 22.99279077 16 25 C15 26 15 26 11.62109375 26.09765625 C10.22652923 26.09098369 8.83198257 26.07902532 7.4375 26.0625 C6.72658203 26.05798828 6.01566406 26.05347656 5.28320312 26.04882812 C3.52209987 26.03700864 1.76103964 26.01907263 0 26 C0 23.69 0 21.38 0 19 C1.32 19 2.64 19 4 19 C4 14.71 4 10.42 4 6 C2.68 6 1.36 6 0 6 C0 4.02 0 2.04 0 0 Z " fill="#050505" transform="translate(375,341)"></path>
<path d="M0 0 C2.31 0 4.62 0 7 0 C8.41164959 2.82329919 8.13206965 5.2290079 8.125 8.375 C8.12757813 9.51710938 8.13015625 10.65921875 8.1328125 11.8359375 C8.0238268 14.43236152 7.76461243 16.53624883 7 19 C7.78246094 18.98839844 8.56492187 18.97679687 9.37109375 18.96484375 C10.38300781 18.95582031 11.39492188 18.94679688 12.4375 18.9375 C13.44683594 18.92589844 14.45617187 18.91429687 15.49609375 18.90234375 C18 19 18 19 19 20 C19.125 22.5 19.125 22.5 19 25 C18 26 18 26 16.23413086 26.11352539 C15.48526611 26.10828857 14.73640137 26.10305176 13.96484375 26.09765625 C12.87224243 26.09390991 12.87224243 26.09390991 11.75756836 26.09008789 C10.8269458 26.08098389 9.89632324 26.07187988 8.9375 26.0625 C4.5134375 26.0315625 4.5134375 26.0315625 0 26 C0 17.42 0 8.84 0 0 Z " fill="#040405" transform="translate(263,341)"></path>
<path d="M0 0 C3.64581687 -0.02887512 7.29160463 -0.04675585 10.9375 -0.0625 C12.49887695 -0.07506836 12.49887695 -0.07506836 14.09179688 -0.08789062 C15.57583008 -0.09272461 15.57583008 -0.09272461 17.08984375 -0.09765625 C18.46450806 -0.10551147 18.46450806 -0.10551147 19.86694336 -0.11352539 C22 0 22 0 23 1 C23.04063832 2.66617115 23.042721 4.33388095 23 6 C20.36 6 17.72 6 15 6 C15.00523682 6.57032959 15.01047363 7.14065918 15.01586914 7.72827148 C15.03658221 10.29800323 15.0496419 12.86771747 15.0625 15.4375 C15.07087891 16.33533203 15.07925781 17.23316406 15.08789062 18.15820312 C15.09111328 19.01220703 15.09433594 19.86621094 15.09765625 20.74609375 C15.10289307 21.53685303 15.10812988 22.3276123 15.11352539 23.14233398 C15 25 15 25 14 26 C12.02 26 10.04 26 8 26 C8 19.4 8 12.8 8 6 C5.36 6 2.72 6 0 6 C0 4.02 0 2.04 0 0 Z " fill="#060606" transform="translate(36,341)"></path>
<path d="M0 0 C11.36232896 -0.06983416 22.72460598 -0.12297982 34.0871067 -0.15543652 C39.36446394 -0.17102235 44.6416732 -0.19212969 49.91894531 -0.22631836 C55.02181812 -0.25916634 60.12454953 -0.27690612 65.22751999 -0.28463173 C67.16414995 -0.29012994 69.10077311 -0.30086511 71.03734207 -0.31719017 C84.46810426 -0.42579878 96.17993832 0.59896854 109 5 C109 5.33 109 5.66 109 6 C104.45139268 6.24810585 101.05018342 6.17368116 96.79406738 4.51055908 C92.00891141 2.85042892 87.76394439 2.5861473 82.73242188 2.64355469 C81.85489258 2.64151031 80.97736328 2.63946594 80.07324219 2.63735962 C77.20485841 2.63437813 74.33706434 2.65274021 71.46875 2.671875 C69.46618797 2.6749357 67.4636238 2.67680946 65.46105957 2.67755127 C61.28189847 2.68213679 57.10293196 2.69650246 52.92382812 2.71875 C47.55567428 2.74717782 42.18767237 2.75797805 36.81945038 2.7624321 C32.69322175 2.7665766 28.56702406 2.77638353 24.44081116 2.78830719 C22.45996855 2.79401753 20.47912295 2.7987737 18.49827576 2.80257416 C15.74293709 2.80940966 12.98772158 2.82302511 10.23242188 2.83886719 C9.40859009 2.83998505 8.5847583 2.84110291 7.73596191 2.84225464 C4.0668548 2.52311914 4.0668548 2.52311914 1 4 C0.63239269 6.32817964 0.29758419 8.6618385 0 11 C-0.66 11 -1.32 11 -2 11 C-2.4803318 12.58298026 -2.95921612 14.16639978 -3.4375 15.75 C-3.70433594 16.63171875 -3.97117187 17.5134375 -4.24609375 18.421875 C-4.88468494 20.60565835 -5.46775833 22.78835498 -6 25 C-6.66 25 -7.32 25 -8 25 C-3.13114754 6.26229508 -3.13114754 6.26229508 0 0 Z " fill="#F3D148" transform="translate(317,171)"></path>
<path d="M0 0 C1.56047444 0.00025108 3.12095443 0.00581199 4.68139648 0.01586914 C5.40774292 0.01687622 6.13408936 0.0178833 6.88244629 0.0189209 C9.60581024 0.02416823 12.32915176 0.03812939 15.05249023 0.05102539 C21.13686523 0.07165039 27.22124023 0.09227539 33.48999023 0.11352539 C33.48999023 18.26352539 33.48999023 36.41352539 33.48999023 55.11352539 C33.15999023 55.11352539 32.82999023 55.11352539 32.48999023 55.11352539 C32.15999023 37.62352539 31.82999023 20.13352539 31.48999023 2.11352539 C20.26999023 2.11352539 9.04999023 2.11352539 -2.51000977 2.11352539 C-2.51000977 22.57352539 -2.51000977 43.03352539 -2.51000977 64.11352539 C-2.84000977 64.11352539 -3.17000977 64.11352539 -3.51000977 64.11352539 C-4.57675987 57.16799702 -4.65508498 50.35512223 -4.64282227 43.33618164 C-4.64377899 42.12909042 -4.64473572 40.92199921 -4.64572144 39.67832947 C-4.64639925 37.14102119 -4.64457289 34.60371115 -4.64038086 32.06640625 C-4.63499421 28.16475598 -4.64035608 24.26321913 -4.64672852 20.36157227 C-4.6460683 17.89477514 -4.64478833 15.42797808 -4.64282227 12.96118164 C-4.64585861 11.20198143 -4.64585861 11.20198143 -4.6489563 9.40724182 C-4.64580414 8.33199753 -4.64265198 7.25675323 -4.6394043 6.14892578 C-4.6386087 5.19820694 -4.63781311 4.2474881 -4.63699341 3.26795959 C-4.42264288 -0.36876165 -3.7867799 0.12247706 0 0 Z " fill="#F6D839" transform="translate(353.510009765625,231.886474609375)"></path>
<path d="M0 0 C1.50433594 0.01353516 1.50433594 0.01353516 3.0390625 0.02734375 C3.80992188 0.03894531 4.58078125 0.05054688 5.375 0.0625 C5.375 0.3925 5.375 0.7225 5.375 1.0625 C28.805 1.3925 52.235 1.7225 76.375 2.0625 C76.375 2.3925 76.375 2.7225 76.375 3.0625 C49.315 3.0625 22.255 3.0625 -5.625 3.0625 C-5.625 10.3225 -5.625 17.5825 -5.625 25.0625 C-6.285 25.0625 -6.945 25.0625 -7.625 25.0625 C-7.625 17.1425 -7.625 9.2225 -7.625 1.0625 C-4.98041621 -0.25979189 -2.94738699 -0.03427194 0 0 Z " fill="#F8C638" transform="translate(74.625,206.9375)"></path>
<path d="M0 0 C1.43352212 0.00015908 2.86704998 0.00585132 4.30053711 0.01586914 C5.43041298 0.01799156 5.43041298 0.01799156 6.58311462 0.02015686 C8.99807646 0.02577163 11.41294687 0.03832656 13.82788086 0.05102539 C15.46134307 0.05603849 17.09480672 0.06060173 18.72827148 0.06469727 C22.74067671 0.07574585 26.75301326 0.09302033 30.76538086 0.11352539 C31.46237638 1.56734437 32.14771952 3.02675492 32.82788086 4.48852539 C33.4021582 5.70668945 33.4021582 5.70668945 33.98803711 6.94946289 C34.24456055 7.66360352 34.50108398 8.37774414 34.76538086 9.11352539 C34.43538086 9.77352539 34.10538086 10.43352539 33.76538086 11.11352539 C33.27038086 9.13352539 33.27038086 9.13352539 32.76538086 7.11352539 C32.10538086 7.11352539 31.44538086 7.11352539 30.76538086 7.11352539 C30.76538086 6.12352539 30.76538086 5.13352539 30.76538086 4.11352539 C29.11538086 4.11352539 27.46538086 4.11352539 25.76538086 4.11352539 C25.76538086 3.45352539 25.76538086 2.79352539 25.76538086 2.11352539 C16.19538086 2.11352539 6.62538086 2.11352539 -3.23461914 2.11352539 C-2.90461914 4.42352539 -2.57461914 6.73352539 -2.23461914 9.11352539 C-3.51951424 10.4935979 -4.86477716 11.81772892 -6.23461914 13.11352539 C-7.76924872 16.37396735 -9.01818443 19.72303717 -10.23461914 23.11352539 C-11.38598321 19.65943317 -11.07750558 18.98797855 -9.83618164 15.69946289 C-9.52165039 14.85641602 -9.20711914 14.01336914 -8.88305664 13.14477539 C-8.54532227 12.26821289 -8.20758789 11.39165039 -7.85961914 10.48852539 C-7.52961914 9.60422852 -7.19961914 8.71993164 -6.85961914 7.80883789 C-3.96585614 0.13918961 -3.96585614 0.13918961 0 0 Z " fill="#EFD040" transform="translate(230.234619140625,170.886474609375)"></path>
<path d="M0 0 C0.66 0 1.32 0 2 0 C0.77563284 6.08669104 -0.83860085 11.87718283 -2.93359375 17.71875 C-3.21219742 18.50270142 -3.49080109 19.28665283 -3.77784729 20.09436035 C-4.36242576 21.73223917 -4.94993469 23.36907486 -5.5402832 25.00488281 C-6.44368772 27.51720776 -7.32848088 30.03562265 -8.21289062 32.5546875 C-8.78533646 34.15144431 -9.3588649 35.74781351 -9.93359375 37.34375 C-10.19619492 38.09781128 -10.45879608 38.85187256 -10.72935486 39.62878418 C-11.39850619 41.45379308 -12.18966456 43.23314476 -13 45 C-14.485 45.495 -14.485 45.495 -16 46 C-16 45.01 -16 44.02 -16 43 C-15.34 43 -14.68 43 -14 43 C-13.87625 42.0925 -13.7525 41.185 -13.625 40.25 C-13 37 -13 37 -12 35.0625 C-10.58124175 32.13631111 -10.37000504 29.20671034 -10 26 C-9.34 26 -8.68 26 -8 26 C-8.04125 25.05125 -8.0825 24.1025 -8.125 23.125 C-8 20 -8 20 -6 18 C-5.76966806 16.05863079 -5.54249449 14.11673177 -5.34375 12.171875 C-4.8025732 8.75262155 -3.57191608 6.08095552 -2 3 C-1.34 2.67 -0.68 2.34 0 2 C0 1.34 0 0.68 0 0 Z " fill="#F5D02E" transform="translate(319,281)"></path>
<path d="M0 0 C5.28 0 10.56 0 16 0 C17.09607687 5.48038434 16.68530462 6.62766848 14.5625 11.5625 C14.00835783 12.87728547 13.45501822 14.1924094 12.90234375 15.5078125 C12.59925293 16.2184082 12.29616211 16.92900391 11.98388672 17.66113281 C10.13322366 22.06047577 8.38829261 26.5025998 6.625 30.9375 C5.93009238 32.67594315 5.23481331 34.41423789 4.5390625 36.15234375 C4.24209473 36.89476318 3.94512695 37.63718262 3.63916016 38.40209961 C3.4282373 38.92940674 3.21731445 39.45671387 3 40 C2.67 40 2.34 40 2 40 C2.44050755 34.82403626 3.79804128 31.02321095 6.01953125 26.34765625 C7.31510301 23.24551033 7.93695644 20.15046633 8.5078125 16.84765625 C9 15 9 15 11 13 C11.6425235 10.93125966 11.6425235 10.93125966 12 9 C12.66 9 13.32 9 14 9 C14 7.35 14 5.7 14 4 C14.66 4 15.32 4 16 4 C16 3.34 16 2.68 16 2 C11.05 2 6.1 2 1 2 C0.67 1.34 0.34 0.68 0 0 Z " fill="#F2D244" transform="translate(323,229)"></path>
<path d="M0 0 C-0.33 0.66 -0.66 1.32 -1 2 C-2.32 1.67 -3.64 1.34 -5 1 C-5 1.66 -5 2.32 -5 3 C-16.55 3 -28.1 3 -40 3 C-40.33 4.32 -40.66 5.64 -41 7 C-41.33 5.35 -41.66 3.7 -42 2 C-38.87848559 0.43924279 -35.50536777 0.61713806 -32.0703125 0.4296875 C-31.28357147 0.38433868 -30.49683044 0.33898987 -29.68624878 0.29226685 C-28.02028787 0.19764633 -26.35419463 0.10533205 -24.68798828 0.01513672 C-22.14174624 -0.12408436 -19.59633039 -0.27447755 -17.05078125 -0.42578125 C-15.43232962 -0.51630621 -13.81384095 -0.6061716 -12.1953125 -0.6953125 C-11.4347757 -0.74108429 -10.67423889 -0.78685608 -9.89065552 -0.83401489 C-6.42075724 -1.0132924 -3.31269674 -1.15569302 0 0 Z " fill="#F6D63A" transform="translate(185,227)"></path>
<path d="M0 0 C2.85368392 1.42684196 2.9606425 3.0118472 4 6 C5.47348494 10.50231508 6.23123621 14.25965778 6 19 C6.66 19 7.32 19 8 19 C8 21.31 8 23.62 8 26 C5.65119674 22.4767951 4.62601158 18.88843081 3.4375 14.875 C2.36042995 10.06410567 2.36042995 10.06410567 0 6 C-1.65 10.29 -3.3 14.58 -5 19 C-5.33 19 -5.66 19 -6 19 C-6 16.69 -6 14.38 -6 12 C-5.34 12 -4.68 12 -4 12 C-4.04125 11.113125 -4.0825 10.22625 -4.125 9.3125 C-3.99989176 5.99713157 -3.50708755 3.93044802 -2 1 C-1.34 0.67 -0.68 0.34 0 0 Z " fill="#F5CF2C" transform="translate(243,234)"></path>
<path d="M0 0 C-13.61003764 6.77065004 -26.07251662 7.3982629 -41 7 C-41 6.34 -41 5.68 -41 5 C-39.29457031 4.94392578 -39.29457031 4.94392578 -37.5546875 4.88671875 C-21.59244595 4.29725866 -21.59244595 4.29725866 -6.36328125 -0.16015625 C-3.73026254 -1.09585711 -2.57879623 -0.95510971 0 0 Z " fill="#F2D335" transform="translate(432,320)"></path>
<path d="M0 0 C16.70842825 -0.55353075 16.70842825 -0.55353075 25 3 C25 3.66 25 4.32 25 5 C25.99 5 26.98 5 28 5 C28 5.66 28 6.32 28 7 C28.66 7 29.32 7 30 7 C31.91847864 9.87771795 33.50079488 12.88626628 35 16 C35.66 16 36.32 16 37 16 C36.505 17.485 36.505 17.485 36 19 C35.45472656 18.33613281 34.90945313 17.67226562 34.34765625 16.98828125 C25.98013424 7.19041359 17.99444376 2.59717604 5.0625 1.375 C3.37550887 1.24331025 1.68814237 1.11600255 0 1 C0 0.67 0 0.34 0 0 Z " fill="#F7D332" transform="translate(394,211)"></path>
<path d="M0 0 C11.22 0 22.44 0 34 0 C34.495 1.98 34.495 1.98 35 4 C30.76417673 4.04938628 26.52850535 4.08571263 22.29248047 4.10986328 C20.85104453 4.11992963 19.40962905 4.1335838 17.96826172 4.15087891 C15.89806066 4.17510012 13.82812924 4.18647641 11.7578125 4.1953125 C9.88826904 4.21102295 9.88826904 4.21102295 7.98095703 4.22705078 C5 4 5 4 3 2 C2.01 1.34 1.02 0.68 0 0 Z " fill="#FEE10C" transform="translate(33,324)"></path>
<path d="M0 0 C0.66 0 1.32 0 2 0 C2.66 0.99 3.32 1.98 4 3 C12.53156256 4.56396372 21.40387937 4.33578609 30.0625 4.5625 C31.61133766 4.60577992 33.16016594 4.64939692 34.70898438 4.69335938 C38.47255932 4.79946066 42.23623195 4.90099536 46 5 C46 5.33 46 5.66 46 6 C30.82 6 15.64 6 0 6 C-1 3 -1 3 0 0 Z " fill="#FCCC45" transform="translate(305,206)"></path>
<path d="M0 0 C0.66 0 1.32 0 2 0 C5.26915048 7.80963726 3.56872088 15.97588991 0.5625 23.6875 C-1 26 -1 26 -4 28 C-3.79503906 27.40832031 -3.59007812 26.81664062 -3.37890625 26.20703125 C-3.10949219 25.41683594 -2.84007812 24.62664062 -2.5625 23.8125 C-2.29566406 23.03519531 -2.02882813 22.25789063 -1.75390625 21.45703125 C-0.21313849 16.43556535 0.11165699 11.94729831 0.0625 6.6875 C0.04896484 4.80611328 0.04896484 4.80611328 0.03515625 2.88671875 C0.02355469 1.93410156 0.01195312 0.98148438 0 0 Z " fill="#F3D22B" transform="translate(435,240)"></path>
<path d="M0 0 C0.33 0 0.66 0 1 0 C1.33266291 6.20970773 0.45029331 10.28264895 -2 16 C-2.66 16 -3.32 16 -4 16 C-4.103125 17.03125 -4.20625 18.0625 -4.3125 19.125 C-4.99127797 22.95083945 -6.11158795 25.63370025 -8 29 C-9.43680847 25.1950446 -8.51815283 22.87065693 -7.12890625 19.140625 C-6.71962891 18.02558594 -6.31035156 16.91054687 -5.88867188 15.76171875 C-5.45103516 14.60285156 -5.01339844 13.44398438 -4.5625 12.25 C-3.9118457 10.48849609 -3.9118457 10.48849609 -3.24804688 8.69140625 C-2.17496453 5.79054627 -1.09197781 2.89378869 0 0 Z " fill="#F7D124" transform="translate(206,228)"></path>
<path d="M0 0 C0.33 0.66 0.66 1.32 1 2 C1.99 2.33 2.98 2.66 4 3 C6.23540238 6.10472552 6.27755993 9.33217562 6.6484375 13.0546875 C6.91743463 15.2109421 6.91743463 15.2109421 8.5625 17.5625 C10.47151845 20.79953128 10.21697312 23.31145693 10 27 C7.82344878 24.82344878 7.30600282 23.47618125 6.30859375 20.60546875 C6.00373047 19.73212891 5.69886719 18.85878906 5.38476562 17.95898438 C5.07216797 17.04439453 4.75957031 16.12980469 4.4375 15.1875 C4.12103516 14.28451172 3.80457031 13.38152344 3.47851562 12.45117188 C2.04558452 8.31057902 0.78995951 4.31771076 0 0 Z " fill="#F6D432" transform="translate(145,234)"></path>
<path d="M0 0 C-13.00288184 12 -13.00288184 12 -19 12 C-19 10 -19 10 -17.3125 8 C-14.91479314 5.92630758 -12.92786973 5.12610374 -10 4 C-9.505 3.505 -9.01 3.01 -8.5 2.5 C-6.0279438 0.0279438 -3.26729975 -1.63364988 0 0 Z " fill="#F6D22B" transform="translate(451,307)"></path>
<path d="M0 0 C0.66 0 1.32 0 2 0 C3.0326802 2.78823655 3.04509293 3.8677274 2.0625 6.75 C1.711875 7.4925 1.36125 8.235 1 9 C0.67 8.34 0.34 7.68 0 7 C-4.29 7 -8.58 7 -13 7 C-13 6.34 -13 5.68 -13 5 C-9.92382812 4.70703125 -9.92382812 4.70703125 -6.84765625 4.4140625 C-6.23792969 4.27742188 -5.62820313 4.14078125 -5 4 C-4.67 3.34 -4.34 2.68 -4 2 C-2.68 2 -1.36 2 0 2 C0 1.34 0 0.68 0 0 Z " fill="#111111" transform="translate(358,347)"></path>
<path d="M0 0 C0 0.33 0 0.66 0 1 C2.475 1.495 2.475 1.495 5 2 C5 2.33 5 2.66 5 3 C1.50001799 3.02934711 -1.99993179 3.04691445 -5.5 3.0625 C-6.97339844 3.07506836 -6.97339844 3.07506836 -8.4765625 3.08789062 C-14.08674757 3.10659124 -19.45150899 2.838879 -25 2 C-25 1.67 -25 1.34 -25 1 C-16.64380043 0.24524649 -8.39004715 -0.13605482 0 0 Z " fill="#FEE412" transform="translate(206,325)"></path>
<path d="M0 0 C3.26987428 3.26987428 4.43726244 7.62285556 6.125 11.875 C6.49753906 12.78636719 6.87007812 13.69773438 7.25390625 14.63671875 C7.78177734 15.95736328 7.78177734 15.95736328 8.3203125 17.3046875 C8.64273926 18.10890137 8.96516602 18.91311523 9.29736328 19.74169922 C10 22 10 22 10 26 C7 25 7 25 5.875 22.8125 C5 20 5 20 4.625 17.25 C4.04866813 14.25307429 3.22858279 12.16915938 1.9375 9.4375 C0.39230978 6.135144 -0.47905902 3.71270744 0 0 Z " fill="#F5CD2F" transform="translate(185,230)"></path>
<path d="M0 0 C10.03411669 -0.17707265 19.99112106 0.37722531 30 1 C30 1.66 30 2.32 30 3 C23.07 3 16.14 3 9 3 C9 2.34 9 1.68 9 1 C6.03 1 3.06 1 0 1 C0 0.67 0 0.34 0 0 Z " fill="#FDE412" transform="translate(273,325)"></path>
<path d="M0 0 C0.66 0.33 1.32 0.66 2 1 C-0.08178136 4.77322871 -2.68880252 6.06180066 -6.71484375 7.40625 C-15.25766406 9.62592297 -24.24880481 9.11348812 -33 9 C-33 8.67 -33 8.34 -33 8 C-32.11646851 7.94054199 -32.11646851 7.94054199 -31.21508789 7.87988281 C-28.49603749 7.68705369 -25.77958885 7.46867918 -23.0625 7.25 C-21.67321289 7.1571875 -21.67321289 7.1571875 -20.25585938 7.0625 C-12.50900935 6.41013368 -6.46709164 4.31139442 0 0 Z " fill="#F4D444" transform="translate(420,279)"></path>
<path d="M0 0 C0.33 0 0.66 0 1 0 C2.30697553 8.04074076 1.97120812 14.7938787 0.1875 22.6875 C0.00993164 23.47753418 -0.16763672 24.26756836 -0.35058594 25.08154297 C-1.71756319 30.71756319 -1.71756319 30.71756319 -4 33 C-4.04254356 31.00045254 -4.04080783 28.99958364 -4 27 C-3.67 26.67 -3.34 26.34 -3 26 C-2.92755947 23.98035801 -2.91622812 21.95832876 -2.9375 19.9375 C-2.94652344 18.83277344 -2.95554687 17.72804688 -2.96484375 16.58984375 C-2.97644531 15.73519531 -2.98804688 14.88054687 -3 14 C-2.34 13.67 -1.68 13.34 -1 13 C-0.53045739 9.95418731 -0.53045739 9.95418731 -0.375 6.4375 C-0.30023438 5.23996094 -0.22546875 4.04242188 -0.1484375 2.80859375 C-0.09945313 1.88175781 -0.05046875 0.95492187 0 0 Z " fill="#F2D33A" transform="translate(475,242)"></path>
<path d="M0 0 C0.66 0 1.32 0 2 0 C2.33 0.99 2.66 1.98 3 3 C4.32 3 5.64 3 7 3 C7 3.99 7 4.98 7 6 C0.66666667 6 -5.66666667 6 -12 6 C-11.67 5.01 -11.34 4.02 -11 3 C-9.01432292 3.29296875 -7.02864583 3.5859375 -5.04296875 3.87890625 C-2.7974658 4.13904799 -2.7974658 4.13904799 0 3 C0 2.01 0 1.02 0 0 Z " fill="#0B0B0C" transform="translate(353,361)"></path>
<path d="M0 0 C0.928125 0.20625 1.85625 0.4125 2.8125 0.625 C2.8125 1.285 2.8125 1.945 2.8125 2.625 C4.4625 2.955 6.1125 3.285 7.8125 3.625 C7.1525 4.945 6.4925 6.265 5.8125 7.625 C2.5125 7.295 -0.7875 6.965 -4.1875 6.625 C-4.1875 5.965 -4.1875 5.305 -4.1875 4.625 C-2.2075 4.625 -0.2275 4.625 1.8125 4.625 C1.4825 3.965 1.1525 3.305 0.8125 2.625 C-1.50906597 2.21770772 -3.8443787 1.88061323 -6.1875 1.625 C-3.1875 -0.375 -3.1875 -0.375 0 0 Z " fill="#1B1B1B" transform="translate(452.1875,345.375)"></path>
<path d="M0 0 C0 0.66 0 1.32 0 2 C8.25 2 16.5 2 25 2 C25 2.33 25 2.66 25 3 C14.11 3 3.22 3 -8 3 C-8 2.34 -8 1.68 -8 1 C-5.29120665 -0.35439668 -2.99066732 -0.06501451 0 0 Z " fill="#FAD21B" transform="translate(76,231)"></path>
<path d="M0 0 C0.25 2.25 0.25 2.25 0 5 C-0.86625 5.8353125 -0.86625 5.8353125 -1.75 6.6875 C-5.14575429 10.1775808 -6.37491127 14.47049736 -8 19 C-9.30826716 15.07519853 -8.11647821 12.64813006 -6.75 8.9375 C-6.42322266 7.98133789 -6.42322266 7.98133789 -6.08984375 7.00585938 C-3.56507673 0 -3.56507673 0 0 0 Z " fill="#F5D12F" transform="translate(228,175)"></path>
<path d="M0 0 C1 2 1 2 0.47094727 3.97119141 C0.17244873 4.75671387 -0.1260498 5.54223633 -0.43359375 6.3515625 C-0.75263672 7.20234375 -1.07167969 8.053125 -1.40039062 8.9296875 C-1.74263672 9.81914062 -2.08488281 10.70859375 -2.4375 11.625 C-2.94506836 12.97078125 -2.94506836 12.97078125 -3.46289062 14.34375 C-4.30182988 16.56516661 -5.1477775 18.78365271 -6 21 C-6.93818736 17.66558984 -6.90782987 15.63131949 -6.0625 12.25 C-5.77052734 11.05117188 -5.77052734 11.05117188 -5.47265625 9.828125 C-5.31667969 9.22484375 -5.16070312 8.6215625 -5 8 C-4.34 8 -3.68 8 -3 8 C-3.061875 7.236875 -3.12375 6.47375 -3.1875 5.6875 C-3 3 -3 3 -1.5 1.1875 C-1.005 0.795625 -0.51 0.40375 0 0 Z " fill="#F2CD37" transform="translate(236,255)"></path>
<path d="M0 0 C0.87454834 0.04713135 1.74909668 0.0942627 2.65014648 0.14282227 C4.06650391 0.21533203 4.06650391 0.21533203 5.51147461 0.28930664 C6.50469727 0.34538086 7.49791992 0.40145508 8.52124023 0.45922852 C9.51833008 0.51143555 10.51541992 0.56364258 11.54272461 0.61743164 C14.01501545 0.74755221 16.48694653 0.88253033 18.95874023 1.02172852 C18.95874023 1.35172852 18.95874023 1.68172852 18.95874023 2.02172852 C8.56374023 2.51672852 8.56374023 2.51672852 -2.04125977 3.02172852 C-2.70125977 4.67172852 -3.36125977 6.32172852 -4.04125977 8.02172852 C-4.37125977 7.36172852 -4.70125977 6.70172852 -5.04125977 6.02172852 C-2.99594935 0.03189086 -2.99594935 0.03189086 0 0 Z " fill="#F5DA48" transform="translate(302.041259765625,226.978271484375)"></path>
<path d="M0 0 C0 1.65 0 3.3 0 5 C-1.32 5.33 -2.64 5.66 -4 6 C-4 5.34 -4 4.68 -4 4 C-3.34 4 -2.68 4 -2 4 C-2 3.34 -2 2.68 -2 2 C-5.3 2 -8.6 2 -12 2 C-12 1.34 -12 0.68 -12 0 C-10.56359829 -0.19573608 -9.12580496 -0.38127816 -7.6875 -0.5625 C-6.88699219 -0.66691406 -6.08648437 -0.77132813 -5.26171875 -0.87890625 C-3 -1 -3 -1 0 0 Z " fill="#0B0C0C" transform="translate(92,351)"></path>
<path d="M0 0 C0.66 0 1.32 0 2 0 C1.69078116 1.45903258 1.37751201 2.91720722 1.0625 4.375 C0.88847656 5.18710937 0.71445312 5.99921875 0.53515625 6.8359375 C0 9 0 9 -1 11 C-1.66 11 -2.32 11 -3 11 C-3 11.66 -3 12.32 -3 13 C-3.66 13 -4.32 13 -5 13 C-4.11223998 9.30099992 -3.05418136 5.65449539 -2 2 C-1.34 2 -0.68 2 0 2 C0 1.34 0 0.68 0 0 Z " fill="#F6D127" transform="translate(319,281)"></path>
<path d="M0 0 C4.0366596 0.60182925 7.06292431 1.90261098 10.625 3.875 C11.56601562 4.38804687 12.50703125 4.90109375 13.4765625 5.4296875 C15.67624166 6.79852809 17.2863802 8.07936573 19 10 C16.6568787 9.74438677 14.32156597 9.40729228 12 9 C11.67 8.34 11.34 7.68 11 7 C9.17809731 5.90287919 7.31760845 4.86908033 5.4375 3.875 C4.42558594 3.33617187 3.41367187 2.79734375 2.37109375 2.2421875 C1.58863281 1.83226562 0.80617188 1.42234375 0 1 C0 0.67 0 0.34 0 0 Z " fill="#F3D647" transform="translate(426,177)"></path>
<path d="M0 0 C0.68449219 0.63421875 1.36898437 1.2684375 2.07421875 1.921875 C5.4523825 4.32131841 7.73026441 4.75518356 11.8125 5.25 C13.55466797 5.47429687 13.55466797 5.47429687 15.33203125 5.703125 C16.21246094 5.80109375 17.09289062 5.8990625 18 6 C18 6.33 18 6.66 18 7 C13.71 7 9.42 7 5 7 C4.67 7.66 4.34 8.32 4 9 C1.49701566 6.06171403 0.53069061 3.82097239 0 0 Z " fill="#FDCF0E" transform="translate(176,319)"></path>
<path d="M0 0 C3.10468986 2.54020079 3.98485936 5.17370067 5 9 C5 10.32 5 11.64 5 13 C7.97 13 10.94 13 14 13 C14 13.33 14 13.66 14 14 C9.545 14.495 9.545 14.495 5 15 C1.82017764 10.08572909 0 5.90403766 0 0 Z " fill="#F3CE3B" transform="translate(268,313)"></path>
<path d="M0 0 C2.31 0 4.62 0 7 0 C7 0.66 7 1.32 7 2 C4.69 2.66 2.38 3.32 0 4 C0 2.68 0 1.36 0 0 Z M0 5 C-1.75 7.0625 -1.75 7.0625 -4 9 C-6.25 8.75 -6.25 8.75 -8 8 C-8 7.34 -8 6.68 -8 6 C-2.25 3.875 -2.25 3.875 0 5 Z " fill="#0D0D0E" transform="translate(125,355)"></path>
<path d="M0 0 C1.31217376 3.93652128 0.11249309 6.39884486 -1.25 10.125 C-1.46785156 10.77082031 -1.68570312 11.41664063 -1.91015625 12.08203125 C-2.578125 13.9453125 -2.578125 13.9453125 -4 17 C-4.99 17.33 -5.98 17.66 -7 18 C-7 17.01 -7 16.02 -7 15 C-6.34 15 -5.68 15 -5 15 C-4.9175 14.195625 -4.835 13.39125 -4.75 12.5625 C-3.79803325 8.04065795 -1.98419821 4.15297299 0 0 Z " fill="#EECF40" transform="translate(310,309)"></path>
<path d="M0 0 C1.3274855 3.98245651 -0.00092171 6.44789543 -1.4375 10.1875 C-1.80198242 11.16879883 -1.80198242 11.16879883 -2.17382812 12.16992188 C-2.7743293 13.78303286 -3.38609203 15.3919435 -4 17 C-4.33 17 -4.66 17 -5 17 C-5.41628689 10.20064747 -3.75173625 5.62760438 0 0 Z " fill="#F2CD3A" transform="translate(228,276)"></path>
<path d="M0 0 C11.52164009 1.92710706 11.52164009 1.92710706 17 4 C17 4.33 17 4.66 17 5 C10.66606918 5.34548714 5.89738492 4.29342747 0 2 C0 1.34 0 0.68 0 0 Z " fill="#F5D442" transform="translate(409,172)"></path>
<path d="M0 0 C2.25 -0.25 2.25 -0.25 5 0 C6.3743291 1.29103643 7.70896357 2.6256709 9 4 C11.1381966 4.7872678 11.1381966 4.7872678 13 5 C13.33 4.34 13.66 3.68 14 3 C14 4.32 14 5.64 14 7 C11.69 7 9.38 7 7 7 C6.67 6.01 6.34 5.02 6 4 C2.48809191 2.77030122 2.48809191 2.77030122 -1 2 C-0.67 1.34 -0.34 0.68 0 0 Z " fill="#0D0D0D" transform="translate(118,345)"></path>
<path d="M0 0 C0.99 0.33 1.98 0.66 3 1 C2.01 1.495 2.01 1.495 1 2 C0.38339182 3.95070702 0.38339182 3.95070702 0 6.25 C-0.69122036 9.68964416 -1.54902674 12.78713063 -3 16 C-4.23072344 12.30782967 -3.60450995 10.60432686 -2.625 6.875 C-2.34914062 5.79992187 -2.07328125 4.72484375 -1.7890625 3.6171875 C-1 1 -1 1 0 0 Z " fill="#F3CB3A" transform="translate(217,305)"></path>
<path d="M0 0 C0.33 0 0.66 0 1 0 C0.10787178 7.28571377 -1.51962916 13.51385435 -5 20 C-6.10960573 16.67118282 -5.9412896 16.12635748 -4.78515625 12.98828125 C-4.51123047 12.23095703 -4.23730469 11.47363281 -3.95507812 10.69335938 C-3.66052734 9.90767578 -3.36597656 9.12199219 -3.0625 8.3125 C-2.77181641 7.51521484 -2.48113281 6.71792969 -2.18164062 5.89648438 C-1.46260698 3.92798243 -0.73236297 1.96358188 0 0 Z " fill="#F2D03B" transform="translate(218,194)"></path>
<path d="M0 0 C5.47035213 3.79037089 9.89962427 7.75027653 14 13 C13.67 13.66 13.34 14.32 13 15 C12.29875 14.278125 11.5975 13.55625 10.875 12.8125 C8.95564376 10.87127075 6.97008433 9.16987485 4.8125 7.5 C2.01912932 5.01700384 1.00994308 3.53480077 0 0 Z " fill="#F4D53F" transform="translate(445,187)"></path>
<path d="M0 0 C3.3 0 6.6 0 10 0 C10 0.33 10 0.66 10 1 C8.35 1 6.7 1 5 1 C4.67 2.98 4.34 4.96 4 7 C3.01 6.67 2.02 6.34 1 6 C0.67 4.02 0.34 2.04 0 0 Z " fill="#F9D010" transform="translate(145,230)"></path>
<path d="M0 0 C0.66 0.33 1.32 0.66 2 1 C0.91796875 2.48828125 0.91796875 2.48828125 -1 4 C-4.13671875 4.29296875 -4.13671875 4.29296875 -7.6875 4.1875 C-9.45673828 4.14689453 -9.45673828 4.14689453 -11.26171875 4.10546875 C-12.61716797 4.05326172 -12.61716797 4.05326172 -14 4 C-11.62283018 1.62283018 -10.8160297 1.68859343 -7.5625 1.4375 C-4.76312913 1.21152113 -2.69540966 0.89846989 0 0 Z " fill="#0D0D0F" transform="translate(128,363)"></path>
<path d="M0 0 C1.99170912 2.98756368 3.02907979 5.55424386 4.1875 8.9375 C4.55230469 9.97777344 4.91710937 11.01804688 5.29296875 12.08984375 C5.98896034 14.95456052 6.02529944 16.28981357 5 19 C-0.74031891 6.51480638 -0.74031891 6.51480638 0 0 Z " fill="#EECF3E" transform="translate(269,196)"></path>
<path d="M0 0 C0.33 0 0.66 0 1 0 C1.22786458 2.01822917 1.45572917 4.03645833 1.68359375 6.0546875 C1.91292961 8.07404316 1.91292961 8.07404316 3 10 C2.67 10.66 2.34 11.32 2 12 C1.01 11.67 0.02 11.34 -1 11 C-1 10.34 -1 9.68 -1 9 C-1.66 8.67 -2.32 8.34 -3 8 C-2.01 5.36 -1.02 2.72 0 0 Z " fill="#F5D01E" transform="translate(308,197)"></path>
<path d="M0 0 C0.66 0 1.32 0 2 0 C1.39254603 4.85963179 -0.72758967 8.7405518 -3 13 C-3.33 13 -3.66 13 -4 13 C-4 11.35 -4 9.7 -4 8 C-3.34 8 -2.68 8 -2 8 C-2 6.35 -2 4.7 -2 3 C-1.34 3 -0.68 3 0 3 C0 2.01 0 1.02 0 0 Z " fill="#F3D334" transform="translate(469,275)"></path>
<path d="M0 0 C0.33 0 0.66 0 1 0 C0.36678379 5.82558915 -0.81468106 11.54193068 -3 17 C-3.66 17.33 -4.32 17.66 -5 18 C-4.42934122 11.58008874 -2.32655091 5.98410537 0 0 Z " fill="#F2CE3C" transform="translate(202,239)"></path>
<path d="M0 0 C1.65312636 2.47968954 2.89803633 4.74272424 4.125 7.4375 C4.47820312 8.19933594 4.83140625 8.96117187 5.1953125 9.74609375 C6 12 6 12 6 16 C5.34 16 4.68 16 4 16 C3.79503906 15.36191406 3.59007812 14.72382813 3.37890625 14.06640625 C3.10949219 13.24011719 2.84007812 12.41382813 2.5625 11.5625 C2.29566406 10.73878906 2.02882813 9.91507813 1.75390625 9.06640625 C1.17844506 7.03780412 1.17844506 7.03780412 0 6 C-0.04080783 4.00041636 -0.04254356 1.99954746 0 0 Z " fill="#F3D23B" transform="translate(467,214)"></path>
<path d="M0 0 C1.485 0.99 1.485 0.99 3 2 C3.1875 4.625 3.1875 4.625 3 7 C3.66 7 4.32 7 5 7 C5.33 9.97 5.66 12.94 6 16 C3.63224279 13.63224279 3.00103504 11.70288662 1.875 8.5625 C1.52179688 7.59441406 1.16859375 6.62632812 0.8046875 5.62890625 C0 3 0 3 0 0 Z " fill="#F2D33E" transform="translate(166,291)"></path>
<path d="M0 0 C2.43786897 0.2359228 3.75336691 0.80817427 5.6875 2.3125 C7.15605269 4.20063917 7.5968424 5.66168591 8 8 C7.01 8.495 7.01 8.495 6 9 C5.34 8.34 4.68 7.68 4 7 C4.33 6.01 4.66 5.02 5 4 C2.69 3.34 0.38 2.68 -2 2 C-1.34 1.34 -0.68 0.68 0 0 Z " fill="#0B0B0B" transform="translate(454,341)"></path>
<path d="M0 0 C0.66 0 1.32 0 2 0 C1.74337755 1.44010481 1.46909179 2.8770687 1.1875 4.3125 C1.03667969 5.11300781 0.88585937 5.91351563 0.73046875 6.73828125 C-0.07572236 9.23445587 -1.02052002 10.32422106 -3 12 C-3.33 11.34 -3.66 10.68 -4 10 C-3.1875 7.6875 -3.1875 7.6875 -2 5 C-1.62875 4.071875 -1.2575 3.14375 -0.875 2.1875 C-0.58625 1.465625 -0.2975 0.74375 0 0 Z " fill="#F4CF31" transform="translate(335,238)"></path>
<path d="M0 0 C1.1446875 0.2784375 1.1446875 0.2784375 2.3125 0.5625 C5.08967375 1.22819173 5.08967375 1.22819173 8 0 C10.6875 0.9375 10.6875 0.9375 13 2 C13 2.33 13 2.66 13 3 C11.39667209 3.08121924 9.79215974 3.13929134 8.1875 3.1875 C7.29417969 3.22230469 6.40085937 3.25710938 5.48046875 3.29296875 C2.58352485 2.95081002 1.77444972 2.24606427 0 0 Z " fill="#0C0C0D" transform="translate(298,364)"></path>
<path d="M0 0 C0.99 0 1.98 0 3 0 C3 2.97 3 5.94 3 9 C3.66 9 4.32 9 5 9 C5 9.99 5 10.98 5 12 C4.34 12 3.68 12 3 12 C2.49440092 10.56445975 1.9957251 9.1264798 1.5 7.6875 C1.2215625 6.88699219 0.943125 6.08648437 0.65625 5.26171875 C0 3 0 3 0 0 Z " fill="#F2D031" transform="translate(258,282)"></path>
<path d="M0 0 C3.625 0.1875 3.625 0.1875 7 1 C7.33 1.66 7.66 2.32 8 3 C4.37 3 0.74 3 -3 3 C-2.01 2.01 -1.02 1.02 0 0 Z " fill="#0E0E0F" transform="translate(416,364)"></path>
<path d="M0 0 C0.99 0.33 1.98 0.66 3 1 C1.02 3.31 -0.96 5.62 -3 8 C-3.33 6.68 -3.66 5.36 -4 4 C-3.34 4 -2.68 4 -2 4 C-1.34 2.68 -0.68 1.36 0 0 Z " fill="#F3D234" transform="translate(455,298)"></path>
<path d="M0 0 C0.33 0.66 0.66 1.32 1 2 C1.66 2 2.32 2 3 2 C4.60725635 5.21451269 4.05748185 8.43612536 4 12 C1.57869669 9.57869669 1.47159496 8.19888623 0.875 4.875 C0.70742187 3.96492188 0.53984375 3.05484375 0.3671875 2.1171875 C0.24601563 1.41851562 0.12484375 0.71984375 0 0 Z " fill="#F2CD35" transform="translate(251,260)"></path>
<path d="M0 0 C-1.26538369 0.84158536 -2.53753779 1.67299748 -3.8125 2.5 C-4.87404297 3.19609375 -4.87404297 3.19609375 -5.95703125 3.90625 C-8 5 -8 5 -11 5 C-11 4.34 -11 3.68 -11 3 C-9.73581754 2.30034557 -8.46334598 1.61565237 -7.1875 0.9375 C-6.47980469 0.55464844 -5.77210938 0.17179687 -5.04296875 -0.22265625 C-3 -1 -3 -1 0 0 Z " fill="#F2D345" transform="translate(443,314)"></path>
<path d="M0 0 C0.66 0.99 1.32 1.98 2 3 C1.67 3.33 1.34 3.66 1 4 C0.63239269 6.32817964 0.29758419 8.6618385 0 11 C-0.66 11 -1.32 11 -2 11 C-2.28571429 3.57142857 -2.28571429 3.57142857 0 0 Z " fill="#F6D625" transform="translate(317,171)"></path>
<path d="M0 0 C0.33 0.99 0.66 1.98 1 3 C0.67 3.66 0.34 4.32 0 5 C-2.64 5 -5.28 5 -8 5 C-5.77077045 2.77077045 -3.90864722 2.11871047 -1 1 C-0.67 0.67 -0.34 0.34 0 0 Z " fill="#F4CE2E" transform="translate(212,322)"></path>
<path d="M0 0 C1.13643966 3.40931897 0.86747764 4.00335456 -0.4375 7.1875 C-0.72496094 7.90292969 -1.01242188 8.61835938 -1.30859375 9.35546875 C-1.53675781 9.89816406 -1.76492187 10.44085938 -2 11 C-2.33 11 -2.66 11 -3 11 C-3.33 9.02 -3.66 7.04 -4 5 C-3.01 4.67 -2.02 4.34 -1 4 C-0.26676204 1.98491642 -0.26676204 1.98491642 0 0 Z " fill="#F2CE37" transform="translate(222,293)"></path>
<path d="M0 0 C0 3.39593478 -0.52165948 4.06619881 -2.5 6.6875 C-2.9640625 7.31011719 -3.428125 7.93273437 -3.90625 8.57421875 C-4.2671875 9.04472656 -4.628125 9.51523437 -5 10 C-5.99 9.67 -6.98 9.34 -8 9 C-5.36 6.03 -2.72 3.06 0 0 Z " fill="#F0D441" transform="translate(430,269)"></path>
<path d="M0 0 C0 0.66 0 1.32 0 2 C-3.3 2 -6.6 2 -10 2 C-6.80505194 -1.19494806 -4.22040044 -1.35655728 0 0 Z " fill="#0F0F0F" transform="translate(457,365)"></path>
<path d="M0 0 C0.928125 0.2784375 0.928125 0.2784375 1.875 0.5625 C4.04160178 1.23686176 4.04160178 1.23686176 6 0 C5.67 1.32 5.34 2.64 5 4 C3.02 4 1.04 4 -1 4 C-0.67 2.68 -0.34 1.36 0 0 Z " fill="#0A0A0A" transform="translate(45,363)"></path>
<path d="M0 0 C0 0.99 0 1.98 0 3 C-2.97 3 -5.94 3 -9 3 C-8.67 2.34 -8.34 1.68 -8 1 C-5.30114269 0.42577504 -2.76207303 0 0 0 Z " fill="#101010" transform="translate(424,350)"></path>
<path d="M0 0 C0.66 0 1.32 0 2 0 C2.66 1.65 3.32 3.3 4 5 C3.01 5.66 2.02 6.32 1 7 C0.34 6.34 -0.32 5.68 -1 5 C-0.625 2.375 -0.625 2.375 0 0 Z " fill="#FAD10E" transform="translate(234,249)"></path>
<path d="M0 0 C0.33 0.66 0.66 1.32 1 2 C1.99 2.33 2.98 2.66 4 3 C4 5.31 4 7.62 4 10 C1.7448078 7.7448078 1.02276532 5.9952413 0 3 C0 2.01 0 1.02 0 0 Z " fill="#F0D63C" transform="translate(145,234)"></path>
<path d="M0 0 C0.66 0 1.32 0 2 0 C2 0.66 2 1.32 2 2 C2.66 2.33 3.32 2.66 4 3 C4 4.65 4 6.3 4 8 C3.34 8 2.68 8 2 8 C0.74335022 5.09399739 0 3.20395416 0 0 Z " fill="#F4CF30" transform="translate(255,273)"></path>
<path d="M0 0 C3.2542015 2.83430453 4.5206753 4.68607774 5 9 C1.7457985 6.16569547 0.4793247 4.31392226 0 0 Z " fill="#F2D234" transform="translate(176,319)"></path>
<path d="M0 0 C0.66 1.32 1.32 2.64 2 4 C-1.75 7 -1.75 7 -4 7 C-3.67 5.68 -3.34 4.36 -3 3 C-2.01 3 -1.02 3 0 3 C0 2.01 0 1.02 0 0 Z " fill="#F9D00D" transform="translate(212,318)"></path>
<path d="M0 0 C0 0.66 0 1.32 0 2 C-2.70879335 3.35439668 -5.00933268 3.06501451 -8 3 C-8 2.34 -8 1.68 -8 1 C-5.29120665 -0.35439668 -2.99066732 -0.06501451 0 0 Z " fill="#F7DC26" transform="translate(76,231)"></path>
<path d="" fill="#FFFFFF" transform="translate(0,0)"></path>
<path d="" fill="#FFFFFF" transform="translate(0,0)"></path>
<path d="" fill="#FFFFFF" transform="translate(0,0)"></path>
<path d="" fill="#FFFFFF" transform="translate(0,0)"></path>
<path d="" fill="#FFFFFF" transform="translate(0,0)"></path>
<path d="" fill="#FFFFFF" transform="translate(0,0)"></path>
<path d="" fill="#FFFFFF" transform="translate(0,0)"></path>
<path d="" fill="#FFFFFF" transform="translate(0,0)"></path>
<path d="" fill="#FFFFFF" transform="translate(0,0)"></path>
<path d="" fill="#FFFFFF" transform="translate(0,0)"></path>
<path d="" fill="#FFFFFF" transform="translate(0,0)"></path>
<path d="" fill="#FFFFFF" transform="translate(0,0)"></path>
<path d="" fill="#FFFFFF" transform="translate(0,0)"></path>
<path d="" fill="#FFFFFF" transform="translate(0,0)"></path>
<path d="" fill="#FFFFFF" transform="translate(0,0)"></path>
<path d="" fill="#FFFFFF" transform="translate(0,0)"></path>
<path d="" fill="#FFFFFF" transform="translate(0,0)"></path>
<path d="" fill="#FFFFFF" transform="translate(0,0)"></path>
<path d="" fill="#FFFFFF" transform="translate(0,0)"></path>
<path d="" fill="#FFFFFF" transform="translate(0,0)"></path>
<path d="" fill="#FFFFFF" transform="translate(0,0)"></path>
<path d="" fill="#FFFFFF" transform="translate(0,0)"></path>
<path d="" fill="#FFFFFF" transform="translate(0,0)"></path>
<path d="" fill="#FFFFFF" transform="translate(0,0)"></path>
<path d="" fill="#FFFFFF" transform="translate(0,0)"></path>
<path d="" fill="#FFFFFF" transform="translate(0,0)"></path>
<path d="" fill="#FFFFFF" transform="translate(0,0)"></path>
<path d="" fill="#FFFFFF" transform="translate(0,0)"></path>
<path d="" fill="#FFFFFF" transform="translate(0,0)"></path>
<path d="" fill="#FFFFFF" transform="translate(0,0)"></path>
<path d="" fill="#FFFFFF" transform="translate(0,0)"></path>
<path d="" fill="#FFFFFF" transform="translate(0,0)"></path>
<path d="" fill="#FFFFFF" transform="translate(0,0)"></path>
<path d="" fill="#FFFFFF" transform="translate(0,0)"></path>
<path d="" fill="#FFFFFF" transform="translate(0,0)"></path>
<path d="" fill="#FFFFFF" transform="translate(0,0)"></path>
<path d="" fill="#FFFFFF" transform="translate(0,0)"></path>
<path d="" fill="#FFFFFF" transform="translate(0,0)"></path>
<path d="" fill="#FFFFFF" transform="translate(0,0)"></path>
<path d="" fill="#FFFFFF" transform="translate(0,0)"></path>
<path d="" fill="#FFFFFF" transform="translate(0,0)"></path>
<path d="" fill="#FFFFFF" transform="translate(0,0)"></path>
<path d="" fill="#FFFFFF" transform="translate(0,0)"></path>
<path d="" fill="#FFFFFF" transform="translate(0,0)"></path>
<path d="" fill="#FFFFFF" transform="translate(0,0)"></path>
<path d="" fill="#FFFFFF" transform="translate(0,0)"></path>
<path d="" fill="#FFFFFF" transform="translate(0,0)"></path>
<path d="" fill="#FFFFFF" transform="translate(0,0)"></path>
<path d="" fill="#FFFFFF" transform="translate(0,0)"></path>
<path d="" fill="#FFFFFF" transform="translate(0,0)"></path>
<path d="" fill="#FFFFFF" transform="translate(0,0)"></path>
<path d="" fill="#FFFFFF" transform="translate(0,0)"></path>
<path d="" fill="#FFFFFF" transform="translate(0,0)"></path>
<path d="" fill="#FFFFFF" transform="translate(0,0)"></path>
<path d="" fill="#FFFFFF" transform="translate(0,0)"></path>
<path d="" fill="#FFFFFF" transform="translate(0,0)"></path>
<path d="" fill="#FFFFFF" transform="translate(0,0)"></path>
<path d="" fill="#FFFFFF" transform="translate(0,0)"></path>
<path d="" fill="#FFFFFF" transform="translate(0,0)"></path>
<path d="" fill="#FFFFFF" transform="translate(0,0)"></path>
<path d="" fill="#FFFFFF" transform="translate(0,0)"></path>
<path d="" fill="#FFFFFF" transform="translate(0,0)"></path>
<path d="" fill="#FFFFFF" transform="translate(0,0)"></path>
<path d="" fill="#FFFFFF" transform="translate(0,0)"></path>
<path d="" fill="#FFFFFF" transform="translate(0,0)"></path>
<path d="" fill="#FFFFFF" transform="translate(0,0)"></path>
<path d="" fill="#FFFFFF" transform="translate(0,0)"></path>
<path d="" fill="#FFFFFF" transform="translate(0,0)"></path>
<path d="" fill="#FFFFFF" transform="translate(0,0)"></path>
<path d="" fill="#FFFFFF" transform="translate(0,0)"></path>
<path d="" fill="#FFFFFF" transform="translate(0,0)"></path>
</svg></svg></g></g><defs><clipPath id="SvgjsClipPath1706"><rect width="1000" height="1000" x="0" y="0" rx="100" ry="100"></rect></clipPath></defs></svg>